<svg width="32" height="32" viewBox="0 0 32 32" fill="none" xmlns="http://www.w3.org/2000/svg">
<rect x="0.5" y="0.5" width="31" height="31" rx="6.5" fill="white" stroke="#F8F8F8"/>
<path d="M19.5785 9C20.8275 9 21.8767 9.4058 22.726 10.2174C23.5753 11.029 24 12.0196 24 13.1893C24 13.7621 23.8751 14.341 23.6253 14.9258C23.3755 15.5107 23.1007 16.0298 22.8009 16.4834C22.5012 16.9369 21.9953 17.5217 21.2834 18.2379C20.5714 18.954 19.9719 19.5328 19.4848 19.9744C18.9977 20.416 18.217 21.0904 17.1429 21.9974L15.9813 23L14.8197 22.0332C13.7705 21.1023 12.9961 20.416 12.4965 19.9744C11.9969 19.5328 11.3911 18.954 10.6792 18.2379C9.96721 17.5217 9.46136 16.9369 9.16159 16.4834C8.86183 16.0298 8.59329 15.5107 8.35597 14.9258C8.11866 14.341 8 13.7621 8 13.1893C8 12.0196 8.42467 11.029 9.274 10.2174C10.1233 9.4058 11.16 9 12.3841 9C13.8329 9 15.032 9.53708 15.9813 10.6113C16.9305 9.53708 18.1296 9 19.5785 9ZM16.0562 20.8875C17.2802 19.8372 18.1733 19.0554 18.7354 18.5422C19.2974 18.029 19.9157 17.4143 20.5902 16.6982C21.2646 15.9821 21.733 15.3555 21.9953 14.8184C22.2576 14.2813 22.3888 13.7383 22.3888 13.1893C22.3888 12.4254 22.1202 11.7928 21.5831 11.2916C21.0461 10.7903 20.3778 10.5396 19.5785 10.5396C18.9789 10.5396 18.4106 10.7067 17.8735 11.0409C17.3365 11.3751 16.9555 11.8048 16.7307 12.3299H15.2318C15.032 11.8048 14.6635 11.3751 14.1265 11.0409C13.5894 10.7067 13.0086 10.5396 12.3841 10.5396C11.5847 10.5396 10.9227 10.7903 10.3981 11.2916C9.87354 11.7928 9.61124 12.4254 9.61124 13.1893C9.61124 13.7383 9.73614 14.2813 9.98595 14.8184C10.2358 15.3555 10.7041 15.9821 11.3911 16.6982C12.0781 17.4143 12.7026 18.029 13.2646 18.5422C13.8267 19.0554 14.7073 19.8372 15.9063 20.8875L15.9813 20.9591L16.0562 20.8875Z" fill="#ECECEC"/>
</svg>
